<?xml version="1.0" standalone="no"?>
<!DOCTYPE svg PUBLIC "-//W3C//DTD SVG 20010904//EN"
 "http://www.w3.org/TR/2001/REC-SVG-20010904/DTD/svg10.dtd">
<svg version="1.0" xmlns="http://www.w3.org/2000/svg"
 width="1666.000000pt" height="1666.000000pt" viewBox="0 0 1666.000000 1666.000000"
 preserveAspectRatio="xMidYMid meet">
<metadata>
Created by potrace 1.14, written by Peter Selinger 2001-2017
</metadata>
<g transform="translate(0.000000,1666.000000) scale(0.100000,-0.100000)"
fill="#000000" stroke="none">
<path d="M8237 15823 c-3 -5 -8 -42 -11 -83 -4 -41 -9 -88 -11 -105 -2 -16 -7
-59 -10 -95 -3 -36 -7 -83 -10 -105 -6 -50 -13 -130 -20 -220 -3 -38 -8 -90
-11 -114 -6 -53 -13 -126 -18 -201 -5 -66 -14 -171 -22 -260 -11 -121 -13
-145 -19 -225 -3 -44 -7 -107 -10 -140 -6 -73 -13 -163 -20 -270 -3 -44 -8
-107 -10 -140 -12 -164 -24 -345 -30 -445 -2 -47 -7 -119 -10 -160 -11 -169
-17 -280 -30 -525 -3 -66 -8 -147 -10 -180 -3 -33 -7 -121 -10 -195 -9 -200
-12 -240 -16 -244 -2 -2 -38 -7 -79 -11 -41 -3 -86 -8 -100 -10 -14 -3 -43 -7
-65 -10 -46 -6 -63 -9 -205 -36 -131 -25 -117 -22 -230 -52 -407 -107 -812
-295 -1174 -544 -61 -42 -113 -79 -116 -82 -3 -4 -36 -31 -75 -61 -38 -30
-101 -81 -138 -114 l-68 -59 -76 74 c-131 128 -146 142 -252 239 -58 52 -114
104 -127 115 -12 11 -37 34 -55 50 -196 176 -575 489 -784 646 -205 155 -464
333 -471 326 -12 -12 321 -474 520 -722 80 -100 266 -326 276 -335 3 -3 30
-34 60 -70 30 -36 57 -67 60 -70 3 -3 23 -25 45 -50 145 -165 328 -361 428
-460 l67 -67 -23 -24 c-28 -28 -164 -206 -229 -299 -157 -225 -332 -565 -433
-845 -34 -96 -102 -315 -111 -363 -2 -12 -13 -59 -24 -105 -10 -45 -21 -95
-23 -112 -3 -16 -10 -61 -17 -100 -10 -64 -21 -152 -23 -182 0 -9 -20 -13 -61
-14 -198 -4 -615 -21 -776 -33 -47 -3 -121 -9 -165 -12 -44 -3 -96 -7 -115 -9
-19 -2 -64 -6 -100 -10 -36 -3 -81 -8 -100 -10 -19 -2 -60 -7 -90 -10 -30 -3
-71 -8 -90 -10 -19 -2 -60 -7 -90 -10 -48 -5 -371 -54 -470 -71 -29 -5 -136
-27 -190 -39 -8 -2 -21 -4 -29 -4 -30 -2 0 -13 71 -27 40 -8 96 -18 123 -24
28 -5 70 -12 95 -15 25 -3 52 -8 60 -10 8 -2 33 -7 55 -10 23 -3 51 -7 64 -10
13 -2 44 -7 70 -10 25 -3 60 -7 76 -10 67 -10 239 -31 330 -40 33 -3 76 -8 95
-10 126 -15 337 -31 650 -50 109 -7 315 -14 453 -16 91 -1 107 -4 108 -18 10
-219 24 -378 45 -503 2 -16 6 -43 9 -60 68 -421 244 -903 468 -1278 63 -105
193 -300 252 -376 35 -44 41 -59 32 -69 -24 -25 -295 -311 -322 -340 -15 -16
-57 -64 -94 -105 -36 -41 -84 -95 -107 -120 -83 -93 -282 -329 -374 -445 -52
-66 -97 -122 -100 -125 -30 -27 -360 -485 -420 -585 l-25 -40 30 19 c137 87
523 369 706 517 108 86 330 269 339 279 3 3 37 32 75 65 39 32 77 66 86 75 9
8 43 38 75 66 94 82 337 309 406 378 l38 40 47 -45 c26 -24 54 -51 63 -59 8
-9 42 -38 75 -65 33 -28 67 -56 75 -64 35 -34 284 -212 380 -273 436 -274 958
-468 1439 -534 25 -3 57 -8 71 -10 14 -2 56 -7 95 -10 89 -8 93 -9 99 -15 3
-3 8 -70 11 -149 3 -80 7 -179 10 -220 3 -41 7 -136 11 -210 3 -74 7 -164 9
-200 2 -36 7 -117 10 -180 12 -225 28 -503 40 -665 3 -33 7 -98 9 -145 7 -105
16 -238 21 -305 2 -27 7 -90 10 -140 3 -49 7 -106 10 -125 4 -35 12 -135 20
-245 2 -33 6 -85 9 -115 3 -30 8 -86 11 -125 3 -38 7 -88 10 -110 2 -22 7 -71
10 -110 4 -38 8 -83 10 -100 2 -16 7 -61 10 -100 3 -38 7 -86 10 -105 2 -19 7
-62 10 -95 3 -33 8 -71 10 -85 2 -14 9 -78 16 -143 13 -123 24 -150 28 -68 1
28 3 58 5 68 2 10 7 52 11 93 3 41 8 86 10 100 2 14 6 54 10 90 8 87 14 146
20 200 3 25 7 77 11 115 3 39 7 88 9 110 2 22 6 76 10 120 3 44 8 91 10 105 2
14 7 63 10 110 3 47 8 105 10 130 3 25 7 83 10 130 3 47 8 105 10 130 2 25 7
81 10 125 3 44 7 109 10 145 3 36 7 99 10 140 3 41 7 111 10 155 6 91 13 206
20 315 3 41 7 111 10 155 8 134 15 255 20 350 8 154 16 317 20 395 8 140 18
365 19 413 0 26 5 47 11 48 5 0 24 2 40 4 17 2 59 7 94 10 62 7 76 9 146 20
17 2 48 7 70 10 22 4 47 8 55 10 8 3 33 7 54 11 149 23 517 132 671 199 17 7
55 23 85 36 63 26 299 144 380 190 84 47 305 194 395 263 81 61 233 191 335
285 l55 51 99 -98 c115 -112 121 -118 246 -232 52 -47 107 -98 124 -113 16
-15 52 -47 80 -70 27 -23 57 -49 66 -57 8 -8 40 -35 70 -60 30 -25 68 -57 85
-72 111 -99 512 -412 705 -551 76 -54 258 -180 273 -188 17 -10 17 -8 6 13
-40 78 -419 598 -522 718 -12 14 -62 75 -112 135 -49 61 -92 112 -95 115 -3 3
-32 37 -65 75 -52 62 -264 301 -305 345 -144 155 -275 293 -313 329 l-47 46
56 75 c69 93 159 226 205 304 19 32 46 79 61 105 47 79 198 389 198 406 0 4 7
21 15 38 19 43 101 274 109 312 2 6 9 30 16 55 16 53 12 38 43 170 22 90 55
272 71 390 13 97 24 256 25 357 l1 62 183 0 c178 1 373 6 552 16 50 3 128 8
175 10 79 4 149 10 260 20 25 2 79 7 120 10 41 4 86 8 100 10 14 2 59 7 100
10 41 4 82 8 90 10 8 2 44 6 80 10 36 4 72 8 80 10 8 1 38 6 65 9 28 4 64 9
80 11 33 4 97 14 135 21 14 2 68 11 120 19 103 16 291 53 297 59 2 2 -13 7
-34 11 -54 10 -66 12 -178 35 -74 14 -127 23 -270 45 -95 14 -376 49 -480 60
-33 3 -78 8 -100 10 -53 6 -140 13 -245 20 -47 3 -105 8 -130 10 -25 2 -94 7
-155 10 -60 3 -153 8 -205 10 -52 3 -221 7 -375 10 l-280 5 -7 40 c-4 23 -9
60 -12 83 -5 40 -30 184 -41 237 -3 14 -8 39 -10 55 -19 107 -106 387 -178
570 -46 118 -162 359 -236 493 -48 84 -157 249 -243 365 -45 59 -77 111 -73
115 107 107 358 367 412 427 40 44 86 96 104 115 68 75 377 438 409 480 19 25
37 47 41 50 13 10 265 339 342 446 136 188 237 337 233 342 -6 5 -276 -176
-351 -235 -6 -4 -55 -42 -110 -82 -254 -190 -617 -491 -864 -718 -25 -23 -59
-54 -76 -68 -60 -54 -290 -272 -369 -351 l-82 -82 -55 52 c-185 174 -452 378
-621 475 -18 10 -62 35 -98 56 -286 164 -652 308 -970 383 -141 33 -180 41
-225 48 -27 3 -52 8 -55 9 -3 2 -35 7 -70 10 -36 4 -67 8 -70 10 -3 2 -46 6
-95 10 -50 4 -92 9 -95 12 -5 5 -5 2 -14 203 -4 80 -8 177 -11 215 -4 67 -13
243 -20 390 -4 85 -14 258 -20 340 -3 33 -7 105 -10 160 -3 55 -8 127 -10 160
-2 33 -7 101 -10 150 -6 97 -14 209 -20 290 -2 28 -6 93 -10 145 -3 52 -8 109
-10 125 -2 17 -7 75 -10 130 -3 55 -8 116 -10 135 -2 19 -7 76 -11 125 -3 50
-8 98 -10 107 -1 10 -6 62 -9 115 -4 54 -8 109 -10 123 -3 14 -7 61 -10 105
-3 44 -8 91 -10 105 -2 14 -6 59 -10 100 -4 41 -8 86 -10 100 -2 14 -7 58 -10
97 -4 40 -8 81 -10 90 -5 32 -19 188 -17 196 1 4 0 7 -2 7 -3 0 -7 -3 -9 -7z
m-282 -3887 c-2 -22 -7 -120 -10 -216 -3 -96 -8 -215 -10 -265 -2 -49 -7 -164
-10 -255 -3 -91 -7 -219 -10 -285 -5 -134 -15 -492 -20 -690 -2 -71 -7 -274
-11 -450 -10 -407 -10 -2014 0 -2585 11 -630 22 -1091 31 -1375 2 -66 7 -210
10 -320 4 -110 8 -236 10 -280 2 -44 7 -167 10 -273 l7 -193 -53 5 c-67 8
-142 17 -236 32 -683 103 -1408 462 -1905 943 l-58 56 88 90 c137 142 359 383
438 474 16 19 40 46 54 61 14 14 36 39 48 55 13 17 38 46 56 65 48 53 291 351
378 465 43 55 81 105 85 110 84 105 307 435 299 442 -6 6 -214 -136 -396 -270
-197 -146 -469 -363 -635 -508 -144 -125 -293 -256 -305 -269 -8 -8 -40 -37
-70 -64 -30 -28 -117 -109 -194 -180 -76 -72 -141 -132 -145 -133 -7 -2 -66
76 -153 202 -141 205 -289 483 -372 700 -15 39 -31 79 -36 90 -9 20 -72 211
-76 230 -1 6 -14 53 -28 105 -38 143 -77 350 -92 480 -3 30 -7 66 -10 80 -2
14 -6 89 -10 167 l-6 143 43 0 c89 2 347 10 454 15 198 9 319 16 375 20 30 3
91 7 135 10 44 3 98 8 120 10 22 3 69 7 105 10 36 3 78 7 95 9 16 2 62 7 100
11 39 4 78 9 87 11 9 1 48 6 85 9 37 4 75 8 83 11 8 2 35 6 60 9 25 3 57 8 73
10 55 10 84 14 152 25 39 6 113 20 165 32 52 11 100 21 107 22 29 5 21 15 -16
21 -22 4 -43 7 -46 6 -2 0 -19 5 -37 10 -28 8 -110 23 -183 34 -11 2 -33 6
-50 9 -58 11 -247 37 -365 52 -25 3 -56 7 -70 9 -14 3 -47 7 -75 9 -27 3 -79
8 -115 11 -36 4 -81 8 -100 10 -19 2 -69 6 -110 10 -41 3 -97 8 -125 10 -27 2
-99 7 -160 11 -60 4 -128 8 -150 9 -65 5 -412 17 -512 19 -50 1 -94 4 -98 7
-7 7 18 183 45 319 95 472 298 947 576 1346 87 126 214 286 224 282 5 -2 69
-61 144 -132 75 -70 146 -137 158 -148 13 -11 65 -59 117 -106 216 -199 615
-532 856 -714 119 -89 398 -284 438 -305 27 -13 28 -13 19 4 -10 17 -191 281
-225 326 -107 144 -181 243 -186 247 -3 3 -26 32 -51 65 -46 60 -328 401 -385
465 -18 19 -72 80 -120 135 -49 55 -103 116 -121 135 -65 70 -202 217 -267
285 l-67 70 42 39 c87 78 105 93 183 152 347 264 686 445 1076 575 82 28 157
52 167 54 9 1 46 11 82 20 36 9 72 18 80 20 137 29 196 40 269 51 25 4 55 8
66 10 11 2 52 7 90 10 39 3 72 7 73 9 2 2 10 1 18 -2 10 -4 13 -17 9 -47z
m690 39 c48 -5 71 -8 160 -20 47 -6 124 -21 215 -41 36 -8 76 -17 89 -19 75
-14 329 -96 471 -152 408 -161 793 -401 1112 -694 48 -44 88 -84 88 -87 0 -4
-33 -42 -72 -84 -346 -365 -686 -766 -951 -1120 -158 -212 -322 -447 -315
-454 5 -5 220 138 350 233 241 175 553 428 814 659 33 29 70 61 81 71 11 10
62 56 113 103 51 47 102 93 114 103 12 10 50 47 86 81 36 34 70 65 76 69 29
17 295 -386 419 -632 95 -190 229 -540 260 -681 1 -8 8 -33 13 -55 15 -56 59
-271 66 -325 4 -25 10 -71 15 -103 4 -32 5 -59 2 -61 -3 -2 -42 -4 -86 -5 -44
-1 -107 -4 -140 -6 -33 -2 -123 -7 -200 -10 -77 -4 -156 -8 -175 -10 -19 -2
-82 -6 -140 -10 -58 -3 -116 -8 -130 -10 -14 -2 -65 -6 -114 -10 -50 -4 -97
-8 -105 -10 -9 -1 -47 -6 -86 -9 -38 -4 -81 -9 -95 -11 -24 -3 -55 -7 -167
-21 -44 -5 -94 -12 -208 -30 -48 -7 -354 -63 -375 -69 -8 -2 -24 -4 -34 -4
-11 -1 -17 -4 -13 -7 8 -8 59 -19 247 -54 154 -28 232 -40 355 -55 28 -4 61
-8 75 -10 70 -10 235 -29 353 -40 31 -3 81 -7 110 -10 28 -3 82 -7 118 -9 36
-3 102 -7 145 -10 205 -15 447 -27 611 -30 l82 -1 -4 -90 c-27 -608 -182
-1150 -472 -1658 -62 -109 -105 -175 -233 -361 -8 -12 -25 -35 -38 -51 l-23
-29 -52 51 c-92 89 -131 126 -232 218 -55 50 -109 99 -120 110 -12 11 -55 49
-95 85 -41 36 -97 85 -125 110 -52 46 -95 82 -225 190 -41 34 -84 69 -95 78
-227 189 -767 584 -780 570 -7 -7 118 -196 230 -348 163 -223 416 -538 605
-754 170 -194 384 -427 558 -609 l36 -37 -53 -51 c-47 -44 -121 -109 -227
-199 -130 -111 -389 -283 -577 -384 -279 -151 -694 -302 -962 -350 -28 -5 -44
-9 -105 -21 -44 -8 -84 -15 -130 -20 -25 -3 -54 -8 -65 -10 -11 -2 -55 -7 -97
-10 l-77 -7 4 84 c2 45 7 155 10 243 3 88 8 210 10 270 4 108 14 406 20 635 2
63 6 234 10 380 3 146 8 328 10 405 26 1034 22 2502 -10 3640 -3 116 -8 287
-10 380 -3 94 -7 224 -10 290 -2 66 -7 199 -10 295 -3 96 -8 222 -11 280 -3
58 -7 158 -9 223 l-3 118 36 -5 c20 -3 60 -7 87 -11z"/>
</g>
</svg>
